<?xml version="1.0" encoding="UTF-8" standalone="no"?>
<svg width="600px" height="114px" viewBox="0 0 600 114" version="1.1" xmlns="http://www.w3.org/2000/svg" xmlns:xlink="http://www.w3.org/1999/xlink" xmlns:sketch="http://www.bohemiancoding.com/sketch/ns">
    <!-- Generator: Sketch 3.0.4 (8053) - http://www.bohemiancoding.com/sketch -->
    <title>logo-amazon</title>
    <desc>Created with Sketch.</desc>
    <defs></defs>
    <g id="Page-1" stroke="none" stroke-width="1" fill="none" fill-rule="evenodd" sketch:type="MSPage">
        <g id="logo-amazon" sketch:type="MSLayerGroup">
            <path d="M234.065205,88.9570087 C212.144863,105.115813 180.372665,113.73712 153.017394,113.73712 C114.660891,113.73712 80.1301954,99.5489115 54.0063896,75.9511558 C51.9539261,74.0955114 53.7929261,71.5666031 56.2558948,73.0116909 C84.4485733,89.416817 119.307684,99.2861666 155.316164,99.2861666 C179.600938,99.2861666 206.31585,94.2611656 230.879775,83.8334916 C234.590637,82.2570157 237.693965,86.2638777 234.065205,88.9570087" id="path8" fill="#FF9900" sketch:type="MSShapeGroup"></path>
            <path d="M243.178166,78.5293347 C240.3868,74.9494403 224.656698,76.8379192 217.596214,77.6754183 C215.44522,77.9381633 215.116836,76.0661079 217.054353,74.7195299 C229.582616,65.9011664 250.140132,68.4465045 252.537414,71.4023804 C254.934683,74.3746861 251.913464,94.9837251 240.140506,104.820215 C238.334337,106.330997 236.610264,105.526351 237.41484,103.522914 C240.05841,96.9214558 245.98594,82.1256526 243.178166,78.5293347" id="path10" fill="#FF9900" sketch:type="MSShapeGroup"></path>
            <path d="M218.088809,12.4654766 L218.088809,3.89343448 C218.088809,2.59613327 219.073992,1.72579338 220.256211,1.72579338 L258.629124,1.72579338 C259.860614,1.72579338 260.845798,2.61255679 260.845798,3.89343448 L260.845798,11.2338632 C260.829389,12.4654766 259.794934,14.074787 257.955915,16.6201251 L238.071621,45.0129714 C245.460508,44.832344 253.259882,45.9325756 259.959132,49.7095334 C261.469748,50.5634498 261.880241,51.8114867 261.99518,53.0431126 L261.99518,62.1899089 C261.99518,63.4379458 260.615919,64.8994509 259.170984,64.1440693 C247.365189,57.9531427 231.684345,57.27986 218.630656,64.2097571 C217.30066,64.9323042 215.904984,63.4872101 215.904984,62.2391732 L215.904984,53.552179 C215.904984,52.1563492 215.921393,49.7752149 217.31707,47.6568381 L240.353963,14.6167004 L220.30547,14.6167004 C219.073992,14.6167004 218.088809,13.7463668 218.088809,12.4654766" id="path12" fill="#221F1F" sketch:type="MSShapeGroup"></path>
            <path d="M78.1105566,65.9504306 L66.4361286,65.9504306 C65.3195962,65.8683318 64.432924,65.0308327 64.3508217,63.9634232 L64.3508217,4.04123987 C64.3508217,2.84246723 65.3524271,1.89000976 66.6003269,1.89000976 L77.4866067,1.89000976 C78.6195795,1.93924273 79.5226547,2.80961393 79.6047633,3.89343448 L79.6047633,11.7265185 L79.8182205,11.7265185 C82.6588322,4.15617943 87.9952372,0.625549319 95.1870892,0.625549319 C102.493868,0.625549319 107.058552,4.15617943 110.3425,11.7265185 C113.166696,4.15617943 119.586809,0.625549319 126.466686,0.625549319 C131.359767,0.625549319 136.7126,2.64539756 139.980127,7.17774316 C143.674567,12.2191551 142.919256,19.5431603 142.919256,25.9639911 L142.902841,63.7827958 C142.902841,64.9815684 141.901235,65.9504306 140.653335,65.9504306 L128.995316,65.9504306 C127.829525,65.8683318 126.8936,64.9323042 126.8936,63.7827958 L126.8936,32.0235358 C126.8936,29.4946212 127.123467,23.1887488 126.565204,20.7911972 C125.694959,16.7679305 123.08422,15.6348332 119.701749,15.6348332 C116.877552,15.6348332 113.922001,17.5233121 112.72336,20.5448821 C111.524719,23.5664458 111.639659,28.6242688 111.639659,32.0235358 L111.639659,63.7827958 C111.639659,64.9815684 110.638053,65.9504306 109.390154,65.9504306 L97.7321476,65.9504306 C96.5499284,65.8683318 95.6304191,64.9323042 95.6304191,63.7827958 L95.6140036,32.0235358 C95.6140036,25.3399726 96.7141142,15.5034638 88.4221578,15.5034638 C80.0316651,15.5034638 80.3600618,25.0936387 80.3600618,32.0235358 L80.3600618,63.7827958 C80.3600618,64.9815684 79.3584564,65.9504306 78.1105566,65.9504306" id="path14" fill="#221F1F" sketch:type="MSShapeGroup"></path>
            <path d="M293.882305,0.625549319 C311.205126,0.625549319 320.58079,15.5034638 320.58079,34.4210811 C320.58079,52.6982501 310.21993,67.1984676 293.882305,67.1984676 C276.871454,67.1984676 267.610717,52.3205531 267.610717,33.7806391 C267.610717,15.1257668 276.986393,0.625549319 293.882305,0.625549319 M293.980817,12.8596034 C285.376886,12.8596034 284.835026,24.5845723 284.835026,31.8921665 C284.835026,39.2161716 284.720086,54.8494739 293.882305,54.8494739 C302.929579,54.8494739 303.356493,42.2377416 303.356493,34.5524442 C303.356493,29.4946212 303.143036,23.4514937 301.615992,18.6563969 C300.302412,14.4853373 297.691685,12.8596034 293.980817,12.8596034" id="path16" fill="#221F1F" sketch:type="MSShapeGroup"></path>
            <path d="M343.042992,65.9504306 L331.417823,65.9504306 C330.252013,65.8683318 329.316088,64.9323042 329.316088,63.7827958 L329.299679,3.8441702 C329.398197,2.74392613 330.366965,1.89000976 331.549184,1.89000976 L342.369796,1.89000976 C343.387811,1.93924273 344.225218,2.62898031 344.455103,3.565008 L344.455103,12.7282215 L344.668548,12.7282215 C347.936086,4.53387646 352.51718,0.625549319 360.57927,0.625549319 C365.817163,0.625549319 370.923708,2.51402822 374.207656,7.68680954 C377.261725,12.4819001 377.261725,20.5448821 377.261725,26.3416756 L377.261725,64.0619643 C377.13037,65.1129315 376.161602,65.9504306 375.012232,65.9504306 L363.304955,65.9504306 C362.237662,65.8683318 361.350996,65.080097 361.23607,64.0619643 L361.23607,31.5144694 C361.23607,24.9622756 361.991374,15.3720882 353.929278,15.3720882 C351.088673,15.3720882 348.477928,17.2769969 347.180769,20.1671788 C345.538804,23.8291907 345.325347,27.4747729 345.325347,31.5144694 L345.325347,63.7827958 C345.308938,64.9815684 344.290905,65.9504306 343.043005,65.9504306" id="path18" fill="#221F1F" sketch:type="MSShapeGroup"></path>
            <path d="M384.568504,61.1881934 C384.568504,58.1666234 387.146393,55.7362436 390.315401,55.7362436 C393.48441,55.7362436 396.062305,58.1666234 396.062305,61.1881934 C396.062305,64.1933273 393.48441,66.6565667 390.315401,66.6565667 C387.146393,66.6565667 384.568504,64.1933273 384.568504,61.1881934" id="path20" fill="#221F1F" sketch:type="MSShapeGroup"></path>
            <path d="M508.25836,65.9668604 C507.043303,65.9175648 506.090957,64.9815684 506.090957,63.7992193 L506.090957,3.87702349 C506.156637,2.80961393 507.059719,1.97211481 508.176264,1.90643954 L512.461811,1.90643954 C513.644036,1.90643954 514.596376,2.76034965 514.694894,3.87702349 L514.694894,12.613282 C517.748969,5.68338481 523.430199,0.264275802 530.605623,0.264275802 L531.048953,0.264275802 L531.475867,0.264275802 C539.094621,0.264275802 544.660911,5.88044196 546.729802,14.0419462 C549.964485,5.97897053 556.039792,0.264275802 564.052623,0.264275802 L564.463115,0.264275802 L564.939289,0.264275802 C570.604097,0.264275802 576.055447,3.909858 578.879644,9.46033635 C581.605316,14.7644933 581.506798,21.8257535 581.506798,27.7539289 L581.490389,63.7992193 C581.506798,64.9487151 580.570886,65.8847428 579.405088,65.9668604 L574.282128,65.9668604 C573.165583,65.9175648 572.262502,65.1293613 572.114725,64.094805 L572.114725,27.7539289 C572.114725,23.4679172 572.328182,18.9191418 570.587687,15.0108147 C568.814356,11.0203825 565.415468,8.52430866 561.770293,8.3436813 C557.698197,8.54073218 553.954497,11.5130379 551.524372,15.5198936 C548.371786,20.6926687 548.486725,25.3563836 548.486725,31.3995173 L548.486725,64.1276395 C548.338948,65.1129315 547.468698,65.8847428 546.401418,65.9668604 L541.311301,65.9668604 C540.096239,65.9175648 539.127477,64.9815684 539.127477,63.7992193 L539.094658,25.3563836 C539.094658,21.8257535 538.881201,17.6711049 537.255652,14.5017483 C535.367381,10.8890194 531.984915,8.52430866 528.438251,8.3436813 C524.760232,8.55716196 521.04937,11.365245 518.84913,14.6331302 C516.008512,18.8041898 515.466665,23.9605538 515.466665,29.264717 L515.466665,63.7992193 C515.466665,64.9487151 514.53074,65.8847428 513.364936,65.9668604 L508.258397,65.9668604" id="path22" fill="#221F1F" sketch:type="MSShapeGroup"></path>
            <path d="M473.087287,67.2148973 C456.519777,67.2148973 449.098053,50.3171283 449.098053,33.4193656 C449.098053,15.6512567 457.816936,0.264275802 474.499385,0.264275802 L474.926299,0.264275802 L475.386051,0.264275802 C491.608748,0.264275802 499.687259,16.6529784 499.687259,33.5507412 C499.687259,51.4502132 490.738504,67.2148973 473.957537,67.2148973 L473.530623,67.2148973 L473.087287,67.2148973 M474.302349,59.0205523 C479.7537,58.8399061 484.055669,55.4570689 486.600733,49.8244917 C488.883076,44.76665 489.326406,38.9698439 489.326406,33.4193656 C489.326406,27.3762318 488.669619,21.070372 485.829001,15.8975781 C483.283942,11.381656 478.916293,8.50789767 474.285928,8.3436813 C469.13013,8.52430866 464.516186,12.022098 462.201007,17.40836 C460.1157,22.0720875 459.475328,28.2629953 459.475328,33.4193656 C459.475328,39.2161716 460.230633,45.9161583 462.627915,50.9575766 C464.959523,55.7362436 469.442105,58.8399061 474.302349,59.0205523" id="path24" fill="#221F1F" sketch:type="MSShapeGroup"></path>
            <path d="M421.315861,58.7578073 C428.754007,58.5278969 432.661898,52.566887 434.271032,44.848755 C434.599429,43.8798866 435.338318,43.140916 436.422019,43.140916 L441.331523,43.124505 C442.49732,43.173738 443.564606,44.0605327 443.466088,45.1443658 C441.200161,58.2980053 433.269433,67.2149099 421.972654,67.2149099 L421.512903,67.2149099 L421.085988,67.2149099 C404.633406,67.2149099 397.54009,50.6948379 397.54009,33.9284382 C397.54009,17.2934329 404.731936,0.26428833 421.184506,0.26428833 L421.627836,0.26428833 L422.071172,0.26428833 C433.499305,0.26428833 441.643497,9.06623459 443.416829,22.2198928 C443.416829,23.2051848 442.49732,24.0590949 441.413619,24.174047 L436.274243,24.1083592 C435.190541,23.9605664 434.484489,23.0409684 434.320291,22.0064122 C433.088813,14.6659772 428.86894,8.81991943 421.841293,8.59000899 C410.659447,8.95128251 407.47403,22.7125294 407.47403,33.3044198 C407.47403,43.5022021 410.134028,58.3965464 421.315861,58.7578199" id="path26" fill="#221F1F" sketch:type="MSShapeGroup"></path>
            <path d="M187.498836,37.3276927 C187.498836,41.8764556 187.613775,45.6698306 185.315011,49.7095334 C183.459583,52.9938483 180.504032,55.0136966 177.236506,55.0136966 C172.753917,55.0136966 170.126763,51.598006 170.126763,46.556594 C170.126763,36.6051457 179.042675,34.7987781 187.498836,34.7987781 L187.498836,37.3276927 M199.271788,65.7862143 C198.500067,66.4759205 197.383516,66.5251848 196.513272,66.065389 C192.638211,62.8467681 191.932166,61.3524098 189.814022,58.2815817 C183.410324,64.8173521 178.862049,66.7715062 170.570086,66.7715062 C160.734665,66.7715062 153.09949,60.7119615 153.09949,48.5764548 C153.09949,39.1012195 158.222456,32.6475543 165.545656,29.4946212 C171.883673,26.7029491 180.733898,26.2103125 187.498836,25.4385012 L187.498836,23.9277193 C187.498836,21.1524707 187.712293,17.8681621 186.070322,15.4706293 C184.658224,13.3193992 181.932539,12.4326358 179.518848,12.4326358 C175.06909,12.4326358 171.111946,14.715229 170.143172,19.4446317 C169.946136,20.4956178 169.174416,21.530174 168.107124,21.5794383 L156.79393,20.3642359 C155.841584,20.1507678 154.774304,19.3789439 155.053442,17.9174389 C157.647758,4.18903273 170.061082,0.0507951429 181.160813,0.0507951429 C186.842049,0.0507951429 194.263767,1.56157701 198.746356,5.86401844 C204.427579,11.1681754 203.885731,18.2458591 203.885731,25.9475676 L203.885731,44.1426315 C203.885731,49.6110111 206.151652,52.0085438 208.286218,54.9644323 C209.025113,56.0153995 209.189312,57.27986 208.236928,58.0680948 C205.856067,60.0551085 201.619773,63.749955 199.288172,65.8190676 L199.271763,65.7861829" id="path28" fill="#221F1F" sketch:type="MSShapeGroup"></path>
            <path d="M34.4504919,37.3276927 C34.4504919,41.8764556 34.5654188,45.6698306 32.2666666,49.7095334 C30.4112261,52.9938483 27.4720967,55.0136966 24.1881489,55.0136966 C19.7055601,55.0136966 17.0948273,51.598006 17.0948273,46.556594 C17.0948273,36.6051457 26.0107397,34.7987781 34.4504919,34.7987781 L34.4504919,37.3276927 M46.2234376,65.7862143 C45.4517111,66.4759205 44.3351599,66.5251848 43.4649157,66.065389 C39.5898676,62.8467681 38.9002309,61.3524098 36.7656651,58.2815817 C30.3619672,64.8173521 25.8301322,66.7715062 17.5217355,66.7715062 C7.70272923,66.7715062 0.0511446764,60.7119615 0.0511446764,48.5764548 C0.0511446764,39.1012195 5.19052046,32.6475543 12.4972992,29.4946212 C18.8353159,26.7029491 27.6855539,26.2103125 34.4504919,25.4385012 L34.4504919,23.9277193 C34.4504919,21.1524707 34.6639491,17.8681621 33.0383937,15.4706293 C31.609867,13.3193992 28.884201,12.4326358 26.4869129,12.4326358 C22.0371739,12.4326358 18.0635894,14.715229 17.0948273,19.4446317 C16.8977856,20.4956178 16.1260591,21.530174 15.075201,21.5794383 L3.74558518,20.3642359 C2.79323862,20.1507678 1.74237432,19.3789439 2.0050904,17.9174389 C4.61582944,4.18903273 17.0127251,0.0507951429 28.1124745,0.0507951429 C33.7936923,0.0507951429 41.2154104,1.56157701 45.6979992,5.86401844 C51.3792351,11.1681754 50.8373749,18.2458591 50.8373749,25.9475676 L50.8373749,44.1426315 C50.8373749,49.6110111 53.1033081,52.0085438 55.2378739,54.9644323 C55.9931787,56.0153995 56.157377,57.27986 55.2050305,58.0680948 C52.8241704,60.0551085 48.5878823,63.749955 46.2562685,65.8190676 L46.2234376,65.7861829" id="path30" fill="#221F1F" sketch:type="MSShapeGroup"></path>
            <path d="M593.624562,2.54686899 C596.432337,2.54686899 598.763938,4.81305119 598.763938,7.67039855 C598.763938,10.4620518 596.46518,12.8103391 593.624562,12.8103391 C590.800372,12.8103391 588.501608,10.5113161 588.501608,7.67039855 C588.501608,4.78019789 590.833209,2.54686899 593.624562,2.54686899 M593.640971,1.56157701 C590.357024,1.56157701 587.516412,4.22186723 587.516412,7.68680954 C587.516412,11.0860703 590.307765,13.7956311 593.640971,13.7956311 C596.990594,13.7956311 599.749109,11.0532358 599.749109,7.68680954 C599.749109,4.22186723 596.941341,1.56157701 593.640971,1.56157701 M591.342207,11.1189111 L592.655788,11.1189111 L592.655788,8.36009229 L593.87085,8.36009229 C594.347017,8.36009229 594.478378,8.55716196 594.576896,8.95126998 C594.576896,9.04979855 594.806775,10.7904909 594.823191,11.1189111 L596.284548,11.1189111 C596.103934,10.7904909 596.00541,9.85446316 595.939735,9.29611998 C595.808374,8.42578009 595.742694,7.81818514 594.806775,7.75249734 C595.282942,7.58828097 596.103934,7.32553602 596.103934,6.06108811 C596.103934,4.254708 594.511216,4.254708 593.69023,4.254708 L591.342207,4.254708 L591.342207,11.1189111 M592.622951,5.35495207 L593.723067,5.35495207 C594.084301,5.35495207 594.741095,5.35495207 594.741095,6.29097976 C594.741095,6.65225327 594.576896,7.25986075 593.69023,7.25986075 L592.622951,7.25986075 L592.622951,5.35495207" id="path32" fill="#221F1F" sketch:type="MSShapeGroup"></path>
        </g>
    </g>
</svg>