<?xml version="1.0" encoding="UTF-8" standalone="no"?>
<svg width="600px" height="189px" viewBox="0 0 600 189" version="1.1" xmlns="http://www.w3.org/2000/svg" xmlns:xlink="http://www.w3.org/1999/xlink" xmlns:sketch="http://www.bohemiancoding.com/sketch/ns">
    <!-- Generator: Sketch 3.0.4 (8053) - http://www.bohemiancoding.com/sketch -->
    <title>logo-bed-bath-beyond</title>
    <desc>Created with Sketch.</desc>
    <defs></defs>
    <g id="Page-1" stroke="none" stroke-width="1" fill="none" fill-rule="evenodd" sketch:type="MSPage">
        <g id="logo-bed-bath-beyond" sketch:type="MSLayerGroup" fill="#196D9B">
            <path d="M26.3214388,171.072616 L29.5070504,171.072616 C34.1292086,171.072616 40.8086331,170.981137 40.8086331,165.189452 C40.8086331,159.305425 33.6155396,159.397767 29.0935252,159.397767 L26.3214388,159.397767 L26.3214388,171.072616 L26.3214388,171.072616 Z M28.8880576,144.553068 C32.9974101,144.553068 37.6238849,144.18111 37.6238849,139.323205 C37.6238849,134.092479 32.3827338,134.470479 28.2742446,134.470479 L26.3214388,134.470479 L26.3214388,144.553068 L28.8880576,144.553068 L28.8880576,144.553068 Z M0.218417266,117.470836 L32.9974101,117.470836 C47.9982734,117.470836 63.3116547,120.742521 63.3116547,136.987027 C63.3116547,143.148945 59.9197122,149.217658 53.1366906,151.177562 L53.1366906,151.740247 C61.5634532,154.449247 66.9082014,160.051932 66.9082014,168.457685 C66.9082014,182.930425 52.1102158,187.878945 38.545036,187.878945 L0.218417266,187.878945 L0.218417266,117.470836 L0.218417266,117.470836 Z" id="Fill-1" sketch:type="MSShapeGroup"></path>
            <path d="M71.4155396,117.470836 L128.243741,117.470836 L128.243741,136.708274 L102.35482,136.708274 L102.35482,143.429425 L126.00518,143.429425 L126.00518,161.731356 L102.35482,161.731356 L102.35482,168.641507 L129.142446,168.641507 L129.142446,187.878945 L71.4155396,187.878945 L71.4155396,117.470836" id="Fill-2" sketch:type="MSShapeGroup"></path>
            <path d="M168.184748,117.470836 L178.777554,135.867699 L179.790216,135.867699 C180.795971,133.625589 181.679137,131.383479 182.941295,129.236301 L189.749353,117.470836 L228.59223,117.470836 L196.054964,157.531932 L196.054964,187.878945 L162.257266,187.878945 L162.257266,157.531932 L129.091511,117.470836 L168.184748,117.470836" id="Fill-3" sketch:type="MSShapeGroup"></path>
            <path d="M250.765468,153.234123 C250.765468,161.268781 258.618129,166.775671 269.861871,166.775671 C281.103022,166.775671 288.96,161.268781 288.96,153.234123 C288.96,145.768192 281.643453,139.505301 269.861871,139.505301 C258.077698,139.505301 250.765468,145.768192 250.765468,153.234123 L250.765468,153.234123 Z M326.338705,152.857849 C326.338705,175.461904 301.013525,189 269.861871,189 C238.710216,189 213.382446,175.461904 213.382446,152.857849 C213.382446,130.730178 238.843165,116.348918 269.861871,116.348918 C300.877122,116.348918 326.338705,130.730178 326.338705,152.857849 L326.338705,152.857849 Z" id="Fill-4" sketch:type="MSShapeGroup"></path>
            <path d="M504.348777,166.775671 L507.925468,166.775671 C527.049496,166.775671 541.761151,162.855 541.761151,153.606082 C541.761151,143.710767 528.940144,139.505301 507.925468,139.505301 L504.348777,139.505301 L504.348777,166.775671 L504.348777,166.775671 Z M446.771223,117.470836 L505.403741,117.470836 C558.577554,117.470836 599.349065,127.833904 599.349065,153.704466 C599.349065,174.623918 566.141007,187.878945 519.694101,187.878945 L446.771223,187.878945 L446.771223,117.470836 L446.771223,117.470836 Z" id="Fill-5" sketch:type="MSShapeGroup"></path>
            <path d="M591.83482,125.683274 C592.618705,125.683274 593.99223,125.82826 593.99223,124.827164 C593.99223,124.178178 593.132374,124.059945 592.459856,124.059945 L590.771223,124.059945 L590.771223,125.683274 L591.83482,125.683274 L591.83482,125.683274 Z M594.789065,129.476219 L593.728921,129.476219 L591.83482,126.567863 L590.771223,126.567863 L590.771223,129.476219 L589.887194,129.476219 L589.887194,123.177082 L592.631655,123.177082 C593.769496,123.177082 594.877122,123.481726 594.877122,124.841836 C594.877122,126.084575 594.00777,126.534205 592.888921,126.567863 L594.789065,129.476219 L594.789065,129.476219 Z M596.943885,126.362466 C596.943885,123.643973 594.690647,121.491616 592.044604,121.491616 C589.398561,121.491616 587.140144,123.643973 587.140144,126.362466 C587.140144,129.076644 589.398561,131.230726 592.044604,131.230726 C594.690647,131.230726 596.943885,129.076644 596.943885,126.362466 L596.943885,126.362466 Z M586.256978,126.362466 C586.256978,123.159822 588.812374,120.602712 592.044604,120.602712 C595.276835,120.602712 597.828777,123.159822 597.828777,126.362466 C597.828777,129.566836 595.276835,132.115315 592.044604,132.115315 C588.812374,132.115315 586.256978,129.566836 586.256978,126.362466 L586.256978,126.362466 Z" id="Fill-6" sketch:type="MSShapeGroup"></path>
            <path d="M369.028489,117.523479 L330.95223,117.523479 L330.95223,187.931589 L368.880863,187.931589 L368.880863,152.10789 L402.473094,187.931589 L440.40518,187.931589 L440.40518,117.523479 L402.473094,117.523479 L402.473094,154.010836 L369.028489,117.523479" id="Fill-7" sketch:type="MSShapeGroup"></path>
            <path d="M0,97.3816027 L21.7916547,97.3816027 C38.2592806,97.3816027 54.228777,89.9605479 54.228777,71.2676712 C54.228777,60.3703973 46.5522302,49.5991233 35.5355396,47.6219589 L35.5355396,47.376863 C41.8402878,44.4072329 45.5283453,36.4916712 45.5283453,29.6911233 C45.5283453,8.66552055 29.0002878,4.0889589 11.388777,4.0889589 L0,4.0889589 L0,97.3816027 L0,97.3816027 Z M11.6391367,54.6701918 L18.8330935,54.6701918 C29.218705,54.6701918 42.5913669,57.3981781 42.5913669,70.5254795 C42.5913669,83.7770548 31.3243165,86.9917808 20.5553957,86.9917808 L11.6391367,86.9917808 L11.6391367,54.6701918 L11.6391367,54.6701918 Z M11.6391367,14.4761918 L14.8661871,14.4761918 C25.774964,14.4761918 34.7084892,16.7027671 34.7084892,29.8128082 C34.7084892,43.1670822 25.6541007,45.3971096 14.6158273,45.3971096 L11.6391367,45.3971096 L11.6391367,14.4761918 L11.6391367,14.4761918 Z" id="Fill-8" sketch:type="MSShapeGroup"></path>
            <path d="M60.9729496,4.09672603 L111.085468,4.09672603 L111.085468,14.7489041 L72.6164029,14.7489041 L72.6164029,40.9146164 L109.974388,40.9146164 L109.974388,51.5667945 L72.6164029,51.5667945 L72.6164029,86.7207945 L111.085468,86.7207945 L111.085468,97.3729726 L60.9729496,97.3729726 L60.9729496,4.09672603" id="Fill-9" sketch:type="MSShapeGroup"></path>
            <path d="M121.960576,97.3729726 L140.899856,97.3729726 C170.349065,97.3729726 193.622158,82.0216849 193.622158,50.2437945 C193.622158,19.2063699 169.854388,4.09672603 141.275396,4.09672603 L121.960576,4.09672603 L121.960576,97.3729726 L121.960576,97.3729726 Z M133.604029,14.7489041 L137.684029,14.7489041 C161.443165,14.7489041 181.984748,23.5326575 181.984748,50.7365753 C181.984748,77.8205342 161.443165,86.7207945 137.684029,86.7207945 L133.604029,86.7207945 L133.604029,14.7489041 L133.604029,14.7489041 Z" id="Fill-10" sketch:type="MSShapeGroup"></path>
            <path d="M226.357986,97.3816027 L248.151367,97.3816027 C264.617266,97.3816027 280.589353,89.9605479 280.589353,71.2676712 C280.589353,60.3703973 272.913669,49.5991233 261.894388,47.6219589 L261.894388,47.376863 C268.2,44.4072329 271.888921,36.4916712 271.888921,29.6911233 C271.888921,8.66552055 255.358273,4.0889589 237.751079,4.0889589 L226.357986,4.0889589 L226.357986,97.3816027 L226.357986,97.3816027 Z M238.001439,54.6701918 L245.194532,54.6701918 C255.580144,54.6701918 268.947626,57.3981781 268.947626,70.5254795 C268.947626,83.7770548 257.679712,86.9917808 246.912518,86.9917808 L238.001439,86.9917808 L238.001439,54.6701918 L238.001439,54.6701918 Z M238.001439,14.4761918 L241.222446,14.4761918 C252.131223,14.4761918 261.065612,16.7027671 261.065612,29.8128082 C261.065612,43.1670822 252.012086,45.3971096 240.97554,45.3971096 L238.001439,45.3971096 L238.001439,14.4761918 L238.001439,14.4761918 Z" id="Fill-11" sketch:type="MSShapeGroup"></path>
            <path d="M345.920288,74.0491644 L356.560576,97.3876438 L369.058705,97.3876438 L324.511942,0.20539726 L279.97036,97.3876438 L292.465036,97.3876438 L303.10964,74.0491644 L345.920288,74.0491644 L345.920288,74.0491644 Z M341.095252,63.3943973 L307.93295,63.3943973 L324.511942,25.6798356 L341.095252,63.3943973 L341.095252,63.3943973 Z" id="Fill-12" sketch:type="MSShapeGroup"></path>
            <path d="M389.551079,97.3876438 L377.911942,97.3876438 L377.911942,14.7489041 L355.769784,14.7489041 L355.769784,4.09672603 L411.692374,4.09672603 L411.692374,14.7489041 L389.551079,14.7489041 L389.551079,97.3876438" id="Fill-13" sketch:type="MSShapeGroup"></path>
            <path d="M474.065612,41.7448356 L474.065612,4.08291781 L485.705612,4.08291781 L485.705612,97.3876438 L474.065612,97.3876438 L474.065612,52.5653014 L429.623309,52.5653014 L429.623309,97.3876438 L417.982446,97.3876438 L417.982446,4.08291781 L429.623309,4.08291781 L429.623309,41.7448356 L474.065612,41.7448356" id="Fill-14" sketch:type="MSShapeGroup"></path>
            <path d="M582.724317,97.3876438 L597.069928,97.3876438 L580.375252,76.7236438 L591.753669,63.3538356 L584.333525,55.6799178 L573.447194,68.3040822 L554.063309,44.792137 C561.871079,39.0971096 570.971223,32.0428356 570.971223,21.5218356 C570.971223,9.27653425 560.883453,2.1169726 549.465324,2.1169726 C537.180432,2.1169726 527.960288,9.64590411 527.960288,22.5143014 C527.960288,30.430726 532.876835,37.3650411 538.169784,42.9349315 L532.388201,47.1412603 C523.528921,53.5957397 516.152806,60.0260548 516.152806,71.8993973 C516.152806,87.9756164 529.07741,99.3475479 544.66446,99.3475479 C555.674245,99.3475479 565.566043,93.0415068 572.621007,84.7591644 L582.724317,97.3876438 L582.724317,97.3876438 Z M547.474532,36.7453973 L544.372662,32.7858904 C541.636835,29.3208904 538.78446,25.8567534 538.78446,21.1516027 C538.78446,15.2097534 543.627626,11.2502466 549.214964,11.2502466 C555.429065,11.2502466 560.14705,14.8429726 560.14705,21.3992877 C560.14705,28.2058767 553.69036,32.0428356 548.971511,35.7555205 L547.474532,36.7453973 L547.474532,36.7453973 Z M545.044317,51.3510411 L565.68,76.5976438 C559.898417,82.4091781 552.96777,88.9620411 544.303597,88.9620411 C535.395108,88.9620411 526.975252,80.6771096 526.975252,71.7733973 C526.975252,62.8593288 537.494676,56.5472466 543.928921,52.0906438 L545.044317,51.3510411 L545.044317,51.3510411 Z" id="Fill-15" sketch:type="MSShapeGroup"></path>
        </g>
    </g>
</svg>