<?xml version="1.0" encoding="UTF-8" standalone="no"?>
<svg width="603px" height="129px" viewBox="0 0 603 129" version="1.1" xmlns="http://www.w3.org/2000/svg" xmlns:xlink="http://www.w3.org/1999/xlink" xmlns:sketch="http://www.bohemiancoding.com/sketch/ns">
    <!-- Generator: Sketch 3.0.4 (8053) - http://www.bohemiancoding.com/sketch -->
    <title>logo-target</title>
    <desc>Created with Sketch.</desc>
    <defs></defs>
    <g id="Page-1" stroke="none" stroke-width="1" fill="none" fill-rule="evenodd" sketch:type="MSPage">
        <g id="logo-target" sketch:type="MSLayerGroup" transform="translate(1.000000, 0.000000)">
            <path d="M-0.239473684,64.3924694 C-0.239473684,28.9069388 28.5157895,0.145204082 63.9894737,0.145204082 C99.4578947,0.145204082 128.218421,28.9069388 128.218421,64.3924694 C128.218421,99.8806327 99.4578947,128.645 63.9894737,128.645 C28.5157895,128.645 -0.239473684,99.8806327 -0.239473684,64.3924694 L-0.239473684,64.3924694 Z M63.9894737,107.070408 C87.55,107.070408 106.647368,87.9626122 106.647368,64.3924694 C106.647368,40.8249592 87.55,21.7224286 63.9894737,21.7224286 C40.4315789,21.7224286 21.3342105,40.8249592 21.3342105,64.3924694 C21.3342105,87.9626122 40.4315789,107.070408 63.9894737,107.070408 L63.9894737,107.070408 Z M63.9894737,86.1460816 C76.2236842,86.1460816 86.1421053,76.2183469 86.1421053,63.9844082 C86.1421053,51.7452041 76.2236842,41.8227347 63.9894737,41.8227347 C51.7605263,41.8227347 41.8421053,51.7452041 41.8421053,63.9844082 C41.8421053,76.2183469 51.7605263,86.1460816 63.9894737,86.1460816 L63.9894737,86.1460816 Z" id="Fill-1" fill="#D82331" sketch:type="MSShapeGroup"></path>
            <path d="M149.078947,18.2789184 L222.260526,18.2789184 L222.260526,36.7522449 L197.089474,36.7522449 L197.089474,110.785082 L174.726316,110.785082 L174.726316,36.8917755 L149.078947,36.8917755 L149.078947,18.2789184" id="Fill-2" fill="#1A1918" sketch:type="MSShapeGroup"></path>
            <path d="M290.623684,18.2789184 L334.055263,18.2789184 C358.744737,18.2789184 362.163158,35.180551 362.163158,45.0293061 C362.163158,59.3325102 349.852632,66.5170204 348.757895,66.7908163 C348.757895,66.7908163 359.568421,70.8266735 359.568421,83.0764082 L359.568421,100.317653 C359.568421,107.231 363.807895,109.144939 364.557895,110.785082 L346.913158,110.785082 C338.5,109.832061 338.639474,103.126694 338.705263,99.2909184 L338.705263,84.4453878 C338.5,80.8202245 337.405263,76.7764694 329.813158,76.6422041 L311.963158,76.6422041 L311.963158,110.785082 L290.555263,110.785082 L290.623684,18.2789184 L290.623684,18.2789184 Z M332.481579,36.8917755 L311.963158,36.8917755 L311.963158,55.3598367 C311.963158,55.3598367 327.968421,55.4177551 330.363158,55.3598367 C336.794737,55.2282041 341.763158,52.3559796 341.763158,46.0560408 C341.763158,39.2032449 337.544737,36.8917755 332.481579,36.8917755 L332.481579,36.8917755 Z" id="Fill-3" fill="#1A1918" sketch:type="MSShapeGroup"></path>
            <path d="M456.555263,18.2789184 L456.555263,110.785082 L523.168421,110.785082 L523.168421,91.7667959 L478.302632,91.7667959 L478.302632,71.0978367 L516.605263,71.0978367 L516.605263,53.5854286 L478.302632,53.5854286 L478.302632,36.8917755 L523.168421,36.8917755 L523.168421,18.2789184 L456.555263,18.2789184" id="Fill-4" fill="#1A1918" sketch:type="MSShapeGroup"></path>
            <path d="M526.318421,36.8917755 L552.721053,36.8917755 L552.721053,110.785082 L574.602632,110.785082 L574.602632,36.8917755 L601.410526,36.8917755 L601.410526,18.2789184 L526.318421,18.2789184 L526.318421,36.8917755" id="Fill-5" fill="#1A1918" sketch:type="MSShapeGroup"></path>
            <path d="M232.978947,18.2604898 L256.715789,18.2604898 L289.05,110.785082 L266.047368,110.785082 L259.368421,91.5588163 L232.076316,91.5588163 L225.776316,110.785082 L202.963158,110.785082 L232.978947,18.2604898 L232.978947,18.2604898 Z M245.376316,50.918551 L237.510526,74.7967143 L253.723684,74.7967143 L245.376316,50.918551 L245.376316,50.918551 Z" id="Fill-6" fill="#1A1918" sketch:type="MSShapeGroup"></path>
            <path d="M448.892105,59.1297959 L409.157895,59.1297959 L409.157895,77.1213469 L428.028947,77.1213469 C427.994737,80.8228571 428.578947,84.519102 424.144737,89.7185918 C422.634211,91.4903673 417.463158,95.4604082 410.247368,95.4604082 C404.160526,95.4604082 399.786842,93.7202245 395.989474,90.4952245 C387.6,83.3686327 385.626316,70.0553061 385.626316,63.0945714 C385.626316,54.3357347 389.110526,32.5821224 410.518421,31.6896531 C410.518421,31.6896531 424.957895,30.7576939 428.718421,48.1779592 L448.752632,48.1779592 C448.347368,39.3480408 438.084211,14.5537143 410.518421,14.5168571 C401.005263,14.5036939 388.931579,17.3680204 378.934211,27.3826327 C371.692105,34.6382245 365.176316,46.8195102 365.176316,63.9844082 C365.176316,82.6025306 372.026316,94.7074694 378.292105,101.354918 C389.292105,113.033367 400.373684,113.931102 406.144737,113.931102 C410.723684,113.931102 419.481579,113.249245 430.836842,105.585592 L433.842105,110.785082 L448.892105,110.785082 L448.892105,59.1297959" id="Fill-7" fill="#1A1918" sketch:type="MSShapeGroup"></path>
            <path d="M585.781579,99.4251837 C588.942105,99.4251837 591.763158,101.705061 591.763158,105.243347 C591.763158,108.800061 588.942105,111.090469 585.781579,111.090469 C582.615789,111.090469 579.792105,108.800061 579.792105,105.243347 C579.792105,101.705061 582.615789,99.4251837 585.781579,99.4251837 L585.781579,99.4251837 Z M585.781579,109.845224 C588.197368,109.845224 590.176316,107.910224 590.176316,105.243347 C590.176316,102.594898 588.197368,100.678327 585.781579,100.678327 C583.328947,100.678327 581.381579,102.594898 581.381579,105.243347 C581.381579,107.910224 583.328947,109.845224 585.781579,109.845224 L585.781579,109.845224 Z M583.457895,101.973592 L585.921053,101.973592 C587.555263,101.973592 588.478947,102.484327 588.478947,103.908592 C588.478947,105.106449 587.728947,105.569796 586.763158,105.654041 L588.505263,108.505204 L587.152632,108.505204 L585.565789,105.714592 L584.752632,105.714592 L584.752632,108.505204 L583.457895,108.505204 L583.457895,101.973592 L583.457895,101.973592 Z M584.752632,104.70102 L585.905263,104.70102 C586.639474,104.70102 587.184211,104.590449 587.184211,103.79802 C587.184211,103.092469 586.439474,102.984531 585.842105,102.984531 L584.752632,102.984531 L584.752632,104.70102 L584.752632,104.70102 Z" id="Fill-8" fill="#1A1918" sketch:type="MSShapeGroup"></path>
        </g>
    </g>
</svg>